<svg width="20" height="20" viewBox="0 0 20 20" fill="none" xmlns="http://www.w3.org/2000/svg">
<path d="M7.85943 1.15748C8.27614 1.15748 8.86089 1.13123 9.61366 1.07874C10.2858 1.02625 10.7764 1 11.0856 1C13.0616 1 14.4664 1.34777 15.2998 2.04331C16.1467 2.72572 16.5701 3.76247 16.5701 5.15354C16.5701 6.34777 16.2811 7.37139 15.7031 8.22441C15.1385 9.07743 14.3252 9.72703 13.2633 10.1732C12.2148 10.6194 10.9781 10.8425 9.55317 10.8425C9.04236 10.8425 8.65253 10.8228 8.38368 10.7835L7.94008 14.5039L10.6218 14.7795L10.5614 15.7835H3L3.10082 14.7795L4.45178 14.5039L6.1052 2.43701L4.65342 2.22047L4.79456 1.15748H7.85943ZM8.54499 9.50394C8.77351 9.55643 9.00203 9.58268 9.23055 9.58268C9.47252 9.58268 9.61366 9.58268 9.65399 9.58268C10.7025 9.56955 11.5292 9.14305 12.1341 8.30315C12.7525 7.46325 13.0684 6.35433 13.0818 4.97638C13.0818 4.0315 12.8533 3.33596 12.3962 2.88976C11.9526 2.44357 11.3276 2.22047 10.521 2.22047C10.185 2.22047 9.86235 2.24672 9.55317 2.29921L8.54499 9.50394Z" fill="white"/>
<path d="M13.5924 14.4055C13.5924 13.815 13.7738 13.336 14.1368 12.9685C14.5132 12.6011 14.9433 12.4173 15.4272 12.4173C15.9112 12.4173 16.2943 12.5814 16.5766 12.9094C16.8589 13.2244 17 13.5919 17 14.0118C17 14.6549 16.8051 15.147 16.4153 15.4882C16.0254 15.8294 15.5684 16 15.0441 16C14.6543 16 14.3115 15.8491 14.0158 15.5472C13.7335 15.2323 13.5924 14.8517 13.5924 14.4055Z" fill="white"/>
</svg>
